<svg xmlns="http://www.w3.org/2000/svg" viewBox="0 0 1200 680" preserveAspectRatio="xMidYMid slice" width="100%" height="100%">
  <defs><linearGradient id="g_publication_4" x1="0%" y1="0%" x2="100%" y2="100%">
      <stop offset="0%" stop-color="#3c3744" />
      <stop offset="100%" stop-color="#778da9" stop-opacity="0.4" />
    </linearGradient>
    <linearGradient id="glow_publication_4" x1="0%" y1="0%" x2="100%" y2="0%">
      <stop offset="0%" stop-color="#778da9" stop-opacity="0.85" />
      <stop offset="100%" stop-color="#415a77" stop-opacity="0.25" />
    </linearGradient></defs>
  <rect width="1200" height="680" fill="url(#g_publication_4)" />
  
        <rect x="300" y="80" width="680" height="520" rx="22" transform="rotate(6 640 340)" fill="#3c3744" fill-opacity="0.6" stroke="#e0e1dd" stroke-width="1.5" stroke-opacity="0.3" />
        <rect x="270" y="70" width="680" height="520" rx="22" transform="rotate(-3 610 330)" fill="url(#glow_publication_4)" stroke="#e0e1dd" stroke-width="2" stroke-opacity="0.5" />
        <rect x="240" y="60" width="720" height="560" rx="22" fill="#778da9" fill-opacity="0.35" stroke="#e0e1dd" stroke-width="3" stroke-opacity="0.85" />
        
        <!-- Refined spine binding shadow -->
        <line x1="380" y1="60" x2="380" y2="620" stroke="#e0e1dd" stroke-width="2" stroke-opacity="0.3" stroke-dasharray="12 12" />
        <rect x="240" y="60" width="140" height="560" rx="22" fill="#e0e1dd" fill-opacity="0.08" />
        
        <!-- Editorial reading typography lines -->
        <rect x="440" y="140" width="340" height="22" rx="8" fill="#e0e1dd" />
        <rect x="440" y="185" width="200" height="14" rx="6" fill="#415a77" />
        
        <rect x="440" y="260" width="440" height="10" rx="5" fill="#e0e1dd" fill-opacity="0.7" />
        <rect x="440" y="290" width="460" height="10" rx="5" fill="#e0e1dd" fill-opacity="0.6" />
        <rect x="440" y="320" width="380" height="10" rx="5" fill="#e0e1dd" fill-opacity="0.5" />
        
        <rect x="440" y="400" width="430" height="10" rx="5" fill="#e0e1dd" fill-opacity="0.4" />
        <rect x="440" y="430" width="450" height="10" rx="5" fill="#e0e1dd" fill-opacity="0.35" />
        
        <path d="M 820 60 L 880 60 L 880 200 L 850 175 L 820 200 Z" fill="#415a77" stroke="#e0e1dd" stroke-width="1.5" />
        
</svg>