<svg xmlns="http://www.w3.org/2000/svg" viewBox="0 0 1200 680" preserveAspectRatio="xMidYMid slice" width="100%" height="100%">
  <defs><linearGradient id="gbg" x1="0%" y1="0%" x2="100%" y2="100%">
      <stop offset="0%" stop-color="#1e293b" />
      <stop offset="100%" stop-color="#334155" />
    </linearGradient>
    <linearGradient id="gm" x1="0%" y1="0%" x2="100%" y2="0%">
      <stop offset="0%" stop-color="#5c768d" stop-opacity="0.75" />
      <stop offset="100%" stop-color="#e2e8f0" stop-opacity="0.2" />
    </linearGradient>
    <linearGradient id="gs" x1="0%" y1="100%" x2="100%" y2="0%">
      <stop offset="0%" stop-color="#e2e8f0" stop-opacity="0.35" />
      <stop offset="100%" stop-color="#5c768d" stop-opacity="0.05" />
    </linearGradient></defs>
  <rect width="1200" height="680" fill="url(#gbg)" />
  
        <rect x="280" y="80" width="680" height="520" rx="20" transform="rotate(4 620 340)" fill="#1e293b" fill-opacity="0.5" stroke="#e2e8f0" stroke-width="1.5" stroke-opacity="0.25" />
        <rect x="260" y="70" width="680" height="520" rx="20" transform="rotate(-2 600 330)" fill="url(#gm)" stroke="#e2e8f0" stroke-width="1.5" stroke-opacity="0.4" />
        <rect x="240" y="60" width="700" height="540" rx="20" fill="#334155" fill-opacity="0.95" stroke="#e2e8f0" stroke-width="2.5" stroke-opacity="0.8" />
        <line x1="360" y1="60" x2="360" y2="600" stroke="#e2e8f0" stroke-width="1.5" stroke-opacity="0.25" stroke-dasharray="10 10" />
        <rect x="420" y="140" width="300" height="18" rx="6" fill="#e2e8f0" />
        <rect x="420" y="175" width="180" height="12" rx="6" fill="#5c768d" />
        <rect x="420" y="240" width="400" height="8" rx="4" fill="#e2e8f0" fill-opacity="0.5" />
        <rect x="420" y="265" width="420" height="8" rx="4" fill="#e2e8f0" fill-opacity="0.4" />
        
</svg>