<svg xmlns="http://www.w3.org/2000/svg" viewBox="0 0 1200 680" preserveAspectRatio="xMidYMid slice" width="100%" height="100%">
  <defs><linearGradient id="grad_event_1" x1="0%" y1="0%" x2="100%" y2="100%">
      <stop offset="0%" stop-color="#102A43" />
      <stop offset="100%" stop-color="#0891B2" stop-opacity="0.55" />
    </linearGradient>
    <radialGradient id="glow_event_1" cx="35%" cy="50%" r="65%">
      <stop offset="0%" stop-color="#E0F2FE" stop-opacity="0.85" />
      <stop offset="45%" stop-color="#F59E0B" stop-opacity="0.4" />
      <stop offset="100%" stop-color="#102A43" stop-opacity="0" />
    </radialGradient></defs>
  
        <rect width="1200" height="680" fill="url(#grad_event_1)" />
        <circle cx="550" cy="340" r="460" fill="url(#glow_event_1)" opacity="0.45" />
        
        <!-- Relational gathering trajectories -->
        <path d="M 150 200 Q 350 150 500 320 T 850 240" fill="none" stroke="#E0F2FE" stroke-width="3" stroke-opacity="0.8" />
        <path d="M 200 500 Q 400 550 500 320 T 850 440" fill="none" stroke="#38BDF8" stroke-width="3" stroke-opacity="0.75" />
        <path d="M 500 320 L 720 540" fill="none" stroke="#F59E0B" stroke-width="2.5" stroke-opacity="0.7" stroke-dasharray="14 10" />
        <path d="M 500 320 L 950 340" fill="none" stroke="#E0F2FE" stroke-width="2" stroke-opacity="0.5" />
        
        <!-- Intertwined collective presence nodes -->
        <circle cx="500" cy="320" r="42" fill="#F59E0B" opacity="0.4" />
        <circle cx="500" cy="320" r="26" fill="#F59E0B" />
        <circle cx="500" cy="320" r="12" fill="#E0F2FE" />
        
        <circle cx="850" cy="240" r="30" fill="#FDE68A" />
        <circle cx="850" cy="240" r="14" fill="#102A43" />
        
        <circle cx="850" cy="440" r="24" fill="#38BDF8" />
        <circle cx="720" cy="540" r="20" fill="#0891B2" opacity="0.9" />
        <circle cx="950" cy="340" r="16" fill="#E0F2FE" opacity="0.8" />
        <circle cx="150" cy="200" r="18" fill="#E0F2FE" opacity="0.7" />
        <circle cx="200" cy="500" r="18" fill="#FDE68A" opacity="0.7" />
        
</svg>