<svg xmlns="http://www.w3.org/2000/svg" viewBox="0 0 1200 680" preserveAspectRatio="xMidYMid slice" width="100%" height="100%">
  <defs><linearGradient id="gbg" x1="0%" y1="0%" x2="100%" y2="100%">
      <stop offset="0%" stop-color="#1f2232" />
      <stop offset="100%" stop-color="#313652" />
    </linearGradient>
    <linearGradient id="gm" x1="0%" y1="0%" x2="100%" y2="0%">
      <stop offset="0%" stop-color="#5f678c" stop-opacity="0.75" />
      <stop offset="100%" stop-color="#dcdcde" stop-opacity="0.2" />
    </linearGradient>
    <linearGradient id="gs" x1="0%" y1="100%" x2="100%" y2="0%">
      <stop offset="0%" stop-color="#dcdcde" stop-opacity="0.35" />
      <stop offset="100%" stop-color="#5f678c" stop-opacity="0.05" />
    </linearGradient></defs>
  <rect width="1200" height="680" fill="url(#gbg)" />
  
        <circle cx="600" cy="340" r="260" fill="none" stroke="#dcdcde" stroke-width="1.5" stroke-opacity="0.15" />
        <circle cx="600" cy="340" r="160" fill="url(#gs)" />
        <path d="M 180 180 C 320 280, 460 340, 600 340" fill="none" stroke="#dcdcde" stroke-width="2" stroke-opacity="0.4" stroke-linecap="round" />
        <path d="M 1020 180 C 880 280, 740 340, 600 340" fill="none" stroke="#dcdcde" stroke-width="2" stroke-opacity="0.4" stroke-linecap="round" />
        <path d="M 340 540 C 440 440, 520 380, 600 340" fill="none" stroke="#5f678c" stroke-width="2.5" stroke-opacity="0.5" stroke-linecap="round" />
        <circle cx="600" cy="340" r="24" fill="#dcdcde" fill-opacity="0.9" />
        <circle cx="600" cy="340" r="10" fill="#5f678c" />
        <circle cx="180" cy="180" r="18" fill="url(#gm)" stroke="#dcdcde" stroke-width="1.5" />
        <circle cx="1020" cy="180" r="22" fill="#5f678c" fill-opacity="0.6" />
        <circle cx="340" cy="540" r="16" fill="#dcdcde" fill-opacity="0.75" />
        
</svg>