<svg xmlns="http://www.w3.org/2000/svg" viewBox="0 0 1200 680" preserveAspectRatio="xMidYMid slice" width="100%" height="100%">
  <defs><linearGradient id="grad_event_3" x1="0%" y1="0%" x2="100%" y2="0%">
      <stop offset="0%" stop-color="#082F49" />
      <stop offset="50%" stop-color="#0E7490" stop-opacity="0.6" />
      <stop offset="100%" stop-color="#082F49" />
    </linearGradient>
    <radialGradient id="glow_event_3" cx="40%" cy="45%" r="55%">
      <stop offset="0%" stop-color="#CFFAFE" stop-opacity="0.85" />
      <stop offset="45%" stop-color="#D6C7A1" stop-opacity="0.4" />
      <stop offset="100%" stop-color="#082F49" stop-opacity="0" />
    </radialGradient></defs>
  
        <rect width="1200" height="680" fill="url(#grad_event_3)" />
        <ellipse cx="600" cy="300" rx="520" ry="200" fill="url(#glow_event_3)" opacity="0.55" />
        
        <path d="M 80 260 C 280 180 420 380 620 280 S 920 180 1120 300" fill="none" stroke="#CFFAFE" stroke-width="3.5" stroke-opacity="0.85" />
        <path d="M 120 340 C 320 380 520 200 720 320 S 980 400 1150 260" fill="none" stroke="#0891B2" stroke-width="2.5" stroke-opacity="0.75" />
        <path d="M 280 220 L 620 280 L 880 240" fill="none" stroke="#D6C7A1" stroke-width="2" stroke-dasharray="16 12" stroke-opacity="0.8" />
        
        <circle cx="280" cy="220" r="18" fill="#38BDF8" />
        <circle cx="620" cy="280" r="32" fill="#D6C7A1" opacity="0.4" />
        <circle cx="620" cy="280" r="20" fill="#D6C7A1" />
        <circle cx="620" cy="280" r="8" fill="#CFFAFE" />
        
        <circle cx="880" cy="240" r="24" fill="#0891B2" />
        <circle cx="880" cy="240" r="10" fill="#082F49" />
        <circle cx="420" cy="310" r="14" fill="#0E7490" opacity="0.9" />
        <circle cx="1020" cy="280" r="16" fill="#CFFAFE" opacity="0.8" />
        
</svg>