<svg xmlns="http://www.w3.org/2000/svg" viewBox="0 0 1200 680" preserveAspectRatio="xMidYMid slice" width="100%" height="100%">
  <defs><linearGradient id="grad_news_4" x1="0%" y1="0%" x2="100%" y2="100%">
      <stop offset="0%" stop-color="#17233A" />
      <stop offset="100%" stop-color="#009688" stop-opacity="0.6" />
    </linearGradient>
    <linearGradient id="glow_news_4" x1="0%" y1="0%" x2="100%" y2="0%">
      <stop offset="0%" stop-color="#F2B366" stop-opacity="0.85" />
      <stop offset="100%" stop-color="#22D3EE" stop-opacity="0.3" />
    </linearGradient>
    <radialGradient id="spot_news_4" cx="30%" cy="50%" r="60%">
      <stop offset="0%" stop-color="#F4F7F8" stop-opacity="0.9" />
      <stop offset="40%" stop-color="#22D3EE" stop-opacity="0.5" />
      <stop offset="100%" stop-color="#17233A" stop-opacity="0" />
    </radialGradient></defs>
  
        <rect width="1200" height="680" fill="url(#grad_news_4)" />
        
        <!-- Dynamic editorial information planes -->
        <rect x="180" y="120" width="560" height="380" rx="20" transform="rotate(-4 460 310)" fill="#009688" fill-opacity="0.7" stroke="#F4F7F8" stroke-width="2" stroke-opacity="0.4" />
        <rect x="240" y="160" width="580" height="400" rx="20" fill="url(#glow_news_4)" stroke="#22D3EE" stroke-width="2.5" stroke-opacity="0.8" />
        <rect x="320" y="200" width="600" height="420" rx="20" transform="rotate(3 620 410)" fill="#17233A" fill-opacity="0.85" stroke="#F4F7F8" stroke-width="2" stroke-opacity="0.6" />
        
        <!-- Bulletin reading lines and circulation flow -->
        <rect x="380" y="260" width="180" height="24" rx="8" fill="#1E3A5F" />
        <rect x="580" y="268" width="280" height="12" rx="6" fill="#F4F7F8" fill-opacity="0.7" />
        
        <rect x="380" y="320" width="480" height="12" rx="6" fill="#22D3EE" fill-opacity="0.8" />
        <rect x="380" y="350" width="420" height="12" rx="6" fill="#F4F7F8" fill-opacity="0.5" />
        <rect x="380" y="380" width="450" height="12" rx="6" fill="#F4F7F8" fill-opacity="0.4" />
        
        <circle cx="980" cy="240" r="38" fill="url(#spot_news_4)" />
        <circle cx="980" cy="240" r="16" fill="#1E3A5F" />
        
</svg>