<svg xmlns="http://www.w3.org/2000/svg" viewBox="0 0 1200 680" preserveAspectRatio="xMidYMid slice" width="100%" height="100%">
  <defs><linearGradient id="gbg" x1="0%" y1="0%" x2="100%" y2="100%">
      <stop offset="0%" stop-color="#0b253a" />
      <stop offset="100%" stop-color="#144552" />
    </linearGradient>
    <linearGradient id="gm" x1="0%" y1="0%" x2="100%" y2="0%">
      <stop offset="0%" stop-color="#2b7a78" stop-opacity="0.75" />
      <stop offset="100%" stop-color="#def2f1" stop-opacity="0.2" />
    </linearGradient>
    <linearGradient id="gs" x1="0%" y1="100%" x2="100%" y2="0%">
      <stop offset="0%" stop-color="#def2f1" stop-opacity="0.35" />
      <stop offset="100%" stop-color="#2b7a78" stop-opacity="0.05" />
    </linearGradient></defs>
  <rect width="1200" height="680" fill="url(#gbg)" />
  
        <path d="M 0 180 C 400 120, 800 240, 1200 160" fill="none" stroke="#def2f1" stroke-width="2" stroke-opacity="0.2" stroke-dasharray="12 12" />
        <path d="M 0 340 C 350 400, 850 280, 1200 340" fill="none" stroke="#def2f1" stroke-width="1.5" stroke-opacity="0.15" />
        <path d="M -100 100 C 300 0, 700 220, 1300 80 L 1300 220 C 700 360, 300 140, -100 240 Z" fill="url(#gm)" />
        <path d="M -100 280 C 400 180, 800 400, 1300 260 L 1300 380 C 800 520, 400 300, -100 420 Z" fill="url(#gs)" />
        <circle cx="340" cy="165" r="5" fill="#def2f1" fill-opacity="0.8" />
        <circle cx="780" cy="315" r="7" fill="#2b7a78" fill-opacity="0.9" />
        
</svg>