<svg xmlns="http://www.w3.org/2000/svg" viewBox="0 0 1200 680" preserveAspectRatio="xMidYMid slice" width="100%" height="100%">
  <defs><linearGradient id="g_resource_5" x1="0%" y1="0%" x2="100%" y2="100%">
      <stop offset="0%" stop-color="#264653" />
      <stop offset="100%" stop-color="#2a9d8f" stop-opacity="0.4" />
    </linearGradient>
    <linearGradient id="glow_resource_5" x1="0%" y1="0%" x2="100%" y2="0%">
      <stop offset="0%" stop-color="#2a9d8f" stop-opacity="0.85" />
      <stop offset="100%" stop-color="#e9c46a" stop-opacity="0.25" />
    </linearGradient></defs>
  <rect width="1200" height="680" fill="url(#g_resource_5)" />
  
        <line x1="0" y1="220" x2="1200" y2="220" stroke="#f4f1de" stroke-width="1" stroke-opacity="0.2" />
        <line x1="0" y1="460" x2="1200" y2="460" stroke="#f4f1de" stroke-width="1" stroke-opacity="0.2" />
        <line x1="400" y1="0" x2="400" y2="680" stroke="#f4f1de" stroke-width="1" stroke-opacity="0.15" stroke-dasharray="10 10" />
        <line x1="800" y1="0" x2="800" y2="680" stroke="#f4f1de" stroke-width="1" stroke-opacity="0.15" stroke-dasharray="10 10" />
        
        <!-- Orderly layered resource bank blocks -->
        <rect x="160" y="100" width="440" height="300" rx="20" fill="#264653" fill-opacity="0.8" stroke="#f4f1de" stroke-width="2" stroke-opacity="0.4" />
        <rect x="260" y="160" width="480" height="340" rx="20" fill="url(#glow_resource_5)" stroke="#f4f1de" stroke-width="2" stroke-opacity="0.6" />
        <rect x="380" y="220" width="560" height="360" rx="20" fill="#2a9d8f" fill-opacity="0.4" stroke="#f4f1de" stroke-width="2.5" stroke-opacity="0.8" />
        
        <!-- Clean institutional catalogue tabs -->
        <rect x="420" y="260" width="100" height="16" rx="8" fill="#f4f1de" />
        <rect x="420" y="300" width="340" height="12" rx="6" fill="#f4f1de" fill-opacity="0.6" />
        <rect x="420" y="330" width="220" height="12" rx="6" fill="#f4f1de" fill-opacity="0.4" />
        <circle cx="860" cy="268" r="18" fill="#e9c46a" />
        
</svg>