<svg xmlns="http://www.w3.org/2000/svg" viewBox="0 0 1200 680" preserveAspectRatio="xMidYMid slice" width="100%" height="100%">
  <defs><linearGradient id="g_res_4" x1="0%" y1="0%" x2="100%" y2="0%">
          <stop offset="0%" stop-color="#064E3B" />
          <stop offset="50%" stop-color="#10B981" stop-opacity="0.75" />
          <stop offset="100%" stop-color="#0F766E" />
        </linearGradient></defs>
  
        <rect width="1200" height="680" fill="url(#g_res_4)" />
        
        <!-- Subtle horizontal connection grid lines -->
        <line x1="80" y1="230" x2="1120" y2="230" stroke="#EAF7F5" stroke-width="1.5" stroke-opacity="0.35" stroke-dasharray="8 8" />
        <line x1="80" y1="350" x2="1120" y2="350" stroke="#EAF7F5" stroke-width="1.5" stroke-opacity="0.35" stroke-dasharray="8 8" />
        
        <!-- Overlapping organized library tiles flowing horizontally -->
        <rect x="140" y="190" width="300" height="170" rx="20" fill="#0F766E" fill-opacity="0.8" stroke="#6B9080" stroke-width="2" />
        <rect x="240" y="210" width="340" height="170" rx="20" fill="#10B981" fill-opacity="0.65" stroke="#EAF7F5" stroke-width="2.5" />
        <rect x="480" y="200" width="380" height="170" rx="20" fill="#064E3B" fill-opacity="0.85" stroke="#A7D8C9" stroke-width="2" />
        <rect x="760" y="220" width="300" height="170" rx="20" fill="#6B9080" fill-opacity="0.45" stroke="#EAF7F5" stroke-width="2" />
        
        <!-- Circulation dots / accessible knowledge indicators -->
        <circle cx="280" cy="250" r="14" fill="#A7D8C9" />
        <rect x="315" y="244" width="160" height="12" rx="6" fill="#EAF7F5" fill-opacity="0.9" />
        <rect x="315" y="268" width="100" height="8" rx="4" fill="#EAF7F5" fill-opacity="0.6" />
        
        <circle cx="520" cy="240" r="12" fill="#EAF7F5" />
        <rect x="550" y="235" width="180" height="10" rx="5" fill="#A7D8C9" fill-opacity="0.85" />
        <rect x="550" y="255" width="220" height="8" rx="4" fill="#EAF7F5" fill-opacity="0.5" />
        
        <!-- Flowing connection trajectory bridging tiles -->
        <path d="M 100 300 Q 450 160 800 320 T 1140 280" fill="none" stroke="#A7D8C9" stroke-width="3" stroke-linecap="round" opacity="0.85" />
        <circle cx="800" cy="320" r="16" fill="#0F766E" stroke="#A7D8C9" stroke-width="3" />
        
</svg>