<svg xmlns="http://www.w3.org/2000/svg" viewBox="0 0 1200 680" preserveAspectRatio="xMidYMid slice" width="100%" height="100%">
  <defs><linearGradient id="grad_call_1" x1="0%" y1="0%" x2="100%" y2="100%">
      <stop offset="0%" stop-color="#17233A" />
      <stop offset="100%" stop-color="#C76F2E" stop-opacity="0.55" />
    </linearGradient>
    <radialGradient id="glow_call_1" cx="35%" cy="50%" r="65%">
      <stop offset="0%" stop-color="#FFF7ED" stop-opacity="0.85" />
      <stop offset="45%" stop-color="#E6A756" stop-opacity="0.4" />
      <stop offset="100%" stop-color="#17233A" stop-opacity="0" />
    </radialGradient></defs>
  
        <rect width="1200" height="680" fill="url(#grad_call_1)" />
        <circle cx="380" cy="340" r="540" fill="url(#glow_call_1)" opacity="0.65" />
        
        <!-- Sweeping dialogue & invitation curves conveying human warmth -->
        <path d="M 0 540 C 300 540 380 400 380 340 C 380 280 300 140 0 140" fill="none" stroke="#FFF7ED" stroke-width="4" stroke-opacity="0.85" stroke-linecap="round" />
        <path d="M 120 620 C 380 620 460 420 460 340 C 460 260 380 60 120 60" fill="none" stroke="#E6A756" stroke-width="3" stroke-opacity="0.75" stroke-dasharray="32 16" stroke-linecap="round" />
        <path d="M 240 680 C 480 680 560 460 560 340 C 560 220 480 0 240 0" fill="none" stroke="#D98A3D" stroke-width="2" stroke-opacity="0.5" />
        
        <!-- Welcoming arrival convergence spark (meeting point) -->
        <circle cx="380" cy="340" r="38" fill="#FFF7ED" opacity="0.3" />
        <circle cx="380" cy="340" r="22" fill="#C76F2E" />
        <circle cx="380" cy="340" r="10" fill="#FFF7ED" />
        
        <!-- Connected community presence nodes -->
        <circle cx="460" cy="220" r="14" fill="#0F766E" />
        <circle cx="560" cy="440" r="18" fill="#E6A756" opacity="0.85" />
        <line x1="380" y1="340" x2="460" y2="220" stroke="#FFF7ED" stroke-width="2" stroke-opacity="0.6" />
        <line x1="380" y1="340" x2="560" y2="440" stroke="#FFF7ED" stroke-width="2" stroke-opacity="0.5" stroke-dasharray="10 10" />
        
</svg>