<svg xmlns="http://www.w3.org/2000/svg" viewBox="0 0 1200 680" preserveAspectRatio="xMidYMid slice" width="100%" height="100%">
  <defs><linearGradient id="grad_call_5" x1="0%" y1="0%" x2="100%" y2="100%">
      <stop offset="0%" stop-color="#2b2625" />
      <stop offset="100%" stop-color="#D98A3D" stop-opacity="0.55" />
    </linearGradient>
    <radialGradient id="glow_call_5" cx="35%" cy="50%" r="65%">
      <stop offset="0%" stop-color="#F2D6B3" stop-opacity="0.85" />
      <stop offset="45%" stop-color="#0F766E" stop-opacity="0.4" />
      <stop offset="100%" stop-color="#2b2625" stop-opacity="0" />
    </radialGradient></defs>
  
        <rect width="1200" height="680" fill="url(#grad_call_5)" />
        <circle cx="380" cy="340" r="540" fill="url(#glow_call_5)" opacity="0.65" />
        
        <!-- Sweeping dialogue & invitation curves conveying human warmth -->
        <path d="M 0 540 C 300 540 380 400 380 340 C 380 280 300 140 0 140" fill="none" stroke="#F2D6B3" stroke-width="4" stroke-opacity="0.85" stroke-linecap="round" />
        <path d="M 120 620 C 380 620 460 420 460 340 C 460 260 380 60 120 60" fill="none" stroke="#0F766E" stroke-width="3" stroke-opacity="0.75" stroke-dasharray="32 16" stroke-linecap="round" />
        <path d="M 240 680 C 480 680 560 460 560 340 C 560 220 480 0 240 0" fill="none" stroke="#C76F2E" stroke-width="2" stroke-opacity="0.5" />
        
        <!-- Welcoming arrival convergence spark (meeting point) -->
        <circle cx="380" cy="340" r="38" fill="#F2D6B3" opacity="0.3" />
        <circle cx="380" cy="340" r="22" fill="#D98A3D" />
        <circle cx="380" cy="340" r="10" fill="#F2D6B3" />
        
        <!-- Connected community presence nodes -->
        <circle cx="460" cy="220" r="14" fill="#FFF7ED" />
        <circle cx="560" cy="440" r="18" fill="#0F766E" opacity="0.85" />
        <line x1="380" y1="340" x2="460" y2="220" stroke="#F2D6B3" stroke-width="2" stroke-opacity="0.6" />
        <line x1="380" y1="340" x2="560" y2="440" stroke="#F2D6B3" stroke-width="2" stroke-opacity="0.5" stroke-dasharray="10 10" />
        
</svg>