<svg xmlns="http://www.w3.org/2000/svg" width="64" height="64" viewBox="0 0 16 16" fill="#475569">
  <title>Illustration representing a community experience</title>
  <path d="M15 14s1 0 1-1-1-4-5-4-5 3-5 4 1 1 1 1zm-7.978-1L7 12.996c.001-.264.167-1.03.76-1.72C8.312 10.629 9.282 10 11 10c1.717 0 2.687.63 3.24 1.276.593.69.758 1.457.76 1.72l-.008.002-.014.002zM11 7a3 3 0 1 0 0-6 3 3 0 0 0 0 6m0-5a2 2 0 1 1 0 4 2 2 0 0 1 0-4M.106 10.453c.224-1.042.94-2.146 2.014-2.58C3.125 7.42 4.095 7 5.812 7c.725 0 1.36.1 1.92.27A5 5 0 0 0 5 10c0 .185.015.367.043.545C4.301 10.354 3.4 10.5 3 10.5c-1.17 0-2.36.5-2.894 1.23-.23.315-.41.67-.492 1.05a2 2 0 0 1 .492-.327M5.812 6a3 3 0 1 0 0-6 3 3 0 0 0 0 6m0-5a2 2 0 1 1 0 4 2 2 0 0 1 0-4"/>
</svg>
